<?xml version="1.0" standalone="no"?>
<!DOCTYPE svg PUBLIC "-//W3C//DTD SVG 20010904//EN"
 "http://www.w3.org/TR/2001/REC-SVG-20010904/DTD/svg10.dtd">
<svg version="1.0" xmlns="http://www.w3.org/2000/svg"
 width="1330.000000pt" height="1277.000000pt" viewBox="0 0 1330.000000 1277.000000"
 preserveAspectRatio="xMidYMid meet">

<g transform="translate(0.000000,1277.000000) scale(0.100000,-0.100000)"
fill="#000000" stroke="none">
<path d="M5839 12198 c0 -24 -2 -50 -3 -58 -3 -15 -9 -68 -22 -192 l-7 -67
-66 -15 c-36 -8 -113 -24 -171 -36 -58 -12 -109 -26 -113 -30 -4 -4 16 -17 45
-30 56 -24 125 -54 221 -98 l59 -26 -6 -66 c-4 -36 -11 -105 -17 -155 -19
-164 -21 -163 115 -10 66 74 121 135 122 135 0 0 61 -27 135 -61 74 -34 151
-67 171 -74 l37 -14 -21 37 c-11 20 -24 42 -28 47 -4 6 -19 30 -32 55 -14 25
-42 74 -62 108 -20 35 -36 69 -36 75 1 12 16 30 159 186 46 50 77 91 70 91 -8
0 -79 -14 -159 -31 -80 -16 -156 -32 -170 -35 -28 -6 -26 -8 -141 193 -35 62
-67 113 -71 113 -5 0 -8 -19 -9 -42z"/>
<path d="M6781 11478 c10 -35 19 -64 19 -65 0 -1 -24 -19 -52 -40 l-53 -38 65
-5 64 -5 19 -50 c10 -27 20 -57 23 -65 4 -9 15 11 28 50 l23 65 68 5 69 5 -52
35 c-28 19 -52 40 -52 46 0 6 7 33 15 60 8 27 15 52 15 56 0 5 -22 -8 -49 -27
-26 -19 -54 -35 -61 -35 -7 0 -29 13 -49 28 -60 47 -61 46 -40 -20z"/>
<path d="M4695 11380 c-28 -22 -56 -40 -63 -40 -7 0 -38 16 -68 35 -31 20 -54
30 -52 23 2 -7 12 -39 23 -72 l19 -58 -25 -22 c-14 -11 -41 -33 -60 -48 l-34
-26 79 1 80 2 24 -62 c14 -34 28 -60 33 -58 4 3 13 30 20 61 7 30 17 58 23 62
6 4 43 9 81 12 l70 5 -62 39 c-37 23 -63 46 -63 56 0 9 7 40 16 69 8 29 14 55
12 56 -2 2 -26 -14 -53 -35z"/>
<path d="M8851 11223 c10 -31 19 -64 19 -73 0 -9 -26 -34 -57 -56 l-57 -39 55
-3 c93 -4 94 -5 115 -77 10 -36 22 -65 26 -65 5 0 8 4 8 10 0 5 9 34 21 64
l20 55 76 3 76 3 -56 40 c-31 22 -56 47 -57 56 0 9 9 42 20 74 11 32 20 60 20
62 0 2 -25 -14 -57 -36 -31 -23 -61 -41 -67 -41 -6 0 -35 18 -64 40 -29 22
-54 40 -57 40 -2 0 5 -25 16 -57z"/>
<path d="M5336 10985 c3 -33 8 -68 11 -78 3 -14 -11 -24 -68 -49 -79 -36 -78
-39 22 -58 62 -12 68 -20 70 -90 1 -72 12 -74 47 -10 18 33 37 62 42 65 8 5
42 -1 129 -21 20 -4 15 4 -29 55 l-52 60 36 66 c41 75 39 77 -58 28 l-49 -25
-54 59 -53 58 6 -60z"/>
<path d="M3839 10489 l-44 -51 -67 26 c-38 14 -68 23 -68 20 0 -3 16 -28 35
-57 19 -28 35 -58 35 -65 0 -8 -18 -36 -40 -62 -22 -26 -40 -50 -40 -53 0 -3
30 3 67 13 37 10 70 17 74 15 3 -3 21 -29 40 -59 19 -31 37 -56 42 -56 4 0 7
28 7 63 0 34 4 67 8 73 4 5 38 19 76 30 l69 21 -69 25 -69 26 -1 66 c-1 37 -4
69 -6 71 -2 3 -24 -18 -49 -46z"/>
<path d="M8150 10044 c-8 -105 -18 -180 -25 -187 -6 -7 -89 -30 -184 -51 -94
-22 -168 -43 -164 -47 4 -4 80 -37 168 -74 88 -37 162 -68 163 -70 3 -3 -3
-89 -23 -320 l-6 -60 28 32 c171 199 210 242 220 247 7 3 87 -27 178 -65 92
-39 168 -69 170 -67 1 1 -39 73 -91 158 -51 85 -94 158 -94 161 0 3 54 67 121
143 66 76 119 139 117 141 -2 2 -77 -15 -168 -36 -91 -21 -173 -39 -182 -39
-11 0 -47 52 -109 155 -51 85 -95 155 -99 155 -4 0 -13 -79 -20 -176z"/>
<path d="M10194 9979 c-71 -61 -134 -113 -141 -116 -6 -3 -68 29 -136 70 -68
41 -138 82 -155 91 l-32 16 11 -27 c5 -16 37 -92 71 -171 34 -78 59 -144 57
-146 -2 -1 -53 -45 -114 -97 -60 -52 -123 -104 -139 -117 -16 -12 -27 -24 -25
-27 3 -2 65 2 139 10 74 8 158 15 186 15 l51 0 28 -67 c62 -149 113 -263 119
-263 2 0 10 26 16 58 6 31 22 100 35 152 12 52 26 107 29 123 6 23 11 27 44
27 42 0 227 19 287 29 l40 7 -50 29 c-46 26 -222 133 -253 153 -11 8 -10 24 7
88 32 124 63 266 58 270 -2 3 -62 -46 -133 -107z"/>
<path d="M9311 9882 l-54 -46 -68 38 -69 37 26 -58 c14 -32 28 -64 32 -72 3
-9 -17 -34 -54 -67 -66 -59 -64 -60 45 -45 l53 8 33 -71 33 -71 11 45 c29 116
18 104 100 115 81 11 82 15 3 54 -24 12 -45 28 -48 35 -3 8 0 42 6 76 6 34 10
64 8 65 -2 2 -27 -17 -57 -43z"/>
<path d="M4900 9909 c0 -2 11 -67 25 -144 14 -77 28 -159 31 -181 l6 -41 -156
-83 c-85 -45 -154 -86 -151 -90 4 -7 77 -21 243 -44 51 -7 96 -17 100 -20 4
-4 21 -82 37 -174 17 -92 35 -167 40 -167 6 0 45 70 88 155 57 112 83 155 95
154 9 -1 90 -11 180 -24 90 -12 166 -20 168 -17 3 2 -54 60 -126 127 -71 68
-130 127 -130 131 0 5 33 77 74 161 41 84 72 157 69 161 -2 4 -74 -29 -160
-73 -85 -45 -158 -80 -163 -78 -5 2 -60 53 -122 113 -110 107 -148 141 -148
134z"/>
<path d="M3956 9517 c-44 -79 -38 -76 -113 -61 -36 8 -68 13 -70 10 -2 -2 18
-28 45 -57 l50 -54 -34 -67 c-19 -38 -32 -68 -29 -68 2 0 34 14 70 32 l65 32
56 -54 c54 -53 56 -54 51 -25 -3 17 -9 51 -12 78 l-6 47 66 31 c36 17 64 33
62 36 -3 2 -35 9 -73 16 l-69 13 -9 72 c-5 40 -12 72 -15 72 -3 0 -19 -24 -35
-53z"/>
<path d="M3004 9398 c-23 -10 -34 -71 -34 -182 0 -28 -3 -67 -6 -86 l-6 -35
-136 -34 c-76 -18 -145 -38 -155 -43 -38 -20 -11 -40 128 -97 l140 -57 0 -70
c0 -38 -4 -121 -8 -184 l-8 -115 42 45 c23 25 75 86 117 135 41 50 78 91 82
93 9 3 187 -65 293 -112 31 -14 57 -23 57 -19 0 3 -38 65 -84 137 -125 194
-121 170 -39 268 107 127 164 198 159 198 -3 0 -42 -9 -88 -21 -297 -74 -264
-76 -322 18 -27 43 -62 99 -79 126 -16 26 -30 47 -31 46 0 0 -11 -5 -22 -11z"/>
<path d="M9795 9010 c-27 -27 -55 -50 -63 -50 -7 0 -29 8 -50 19 -20 10 -47
22 -60 25 -21 7 -20 4 13 -52 19 -33 35 -65 35 -72 0 -6 -21 -33 -47 -61 -25
-27 -44 -51 -42 -53 2 -3 31 2 64 10 33 7 65 14 72 14 7 0 27 -27 45 -60 18
-33 36 -60 39 -60 3 0 10 32 15 72 l9 72 68 14 c37 8 67 18 67 23 0 4 -15 12
-32 18 -18 6 -47 20 -64 30 l-31 19 9 63 c4 35 7 67 6 71 -2 5 -25 -14 -53
-42z"/>
<path d="M7040 8894 c-19 -30 -39 -54 -43 -54 -5 0 -34 7 -64 16 -30 9 -56 14
-58 12 -2 -2 14 -27 36 -56 l40 -52 -41 -60 -40 -59 65 24 c36 14 67 25 69 25
3 0 22 -24 43 -52 l38 -53 5 69 5 69 57 21 c58 22 81 36 59 36 -7 0 -37 7 -67
16 -50 14 -54 17 -55 47 0 18 -3 48 -7 68 l-7 36 -35 -53z"/>
<path d="M3830 8584 c-285 -24 -471 -71 -579 -146 -75 -52 -167 -143 -196
-193 -14 -23 -43 -120 -69 -230 -58 -247 -72 -320 -91 -505 -19 -178 -49 -303
-138 -565 -36 -104 -79 -235 -97 -290 -33 -102 -64 -161 -156 -296 -29 -41
-69 -108 -89 -149 -59 -116 -67 -176 -66 -490 1 -391 19 -523 80 -592 24 -27
38 -33 92 -39 35 -4 102 -13 149 -20 57 -9 185 -13 387 -12 l302 1 7 -36 c20
-124 46 -190 112 -290 37 -57 79 -85 114 -77 13 2 124 11 248 20 124 8 249 17
278 20 51 5 53 4 50 -17 -3 -20 -9 -23 -53 -25 -27 -2 -156 -9 -285 -18 -234
-15 -478 -30 -660 -41 -218 -12 -535 -58 -705 -100 -425 -107 -979 -365 -1133
-527 -62 -67 -94 -128 -121 -237 -35 -142 -41 -210 -51 -615 -5 -214 -12 -412
-14 -440 -5 -63 10 -418 24 -550 15 -143 39 -253 66 -306 25 -50 72 -96 109
-105 16 -4 21 -11 18 -25 -11 -41 12 -49 138 -49 66 0 119 -3 119 -7 -1 -14
-52 -78 -178 -223 -145 -166 -154 -182 -125 -212 l21 -20 106 26 c239 60 423
91 751 126 424 46 545 74 576 131 9 18 7 27 -10 50 -20 27 -20 31 -6 45 12 12
15 41 15 138 0 150 6 185 34 195 12 5 140 29 286 54 553 96 583 99 1325 147
269 17 427 20 1200 20 490 0 985 1 1100 1 1563 0 2206 -9 2520 -36 33 -3 130
-10 215 -15 210 -14 385 -35 635 -75 190 -30 465 -78 523 -91 34 -7 42 -42 43
-188 1 -99 5 -135 16 -148 13 -15 12 -20 -8 -47 l-23 -31 20 -28 c39 -51 163
-77 611 -127 306 -34 517 -71 751 -132 62 -16 63 -16 85 5 21 22 21 23 4 55
-10 17 -75 97 -145 177 -117 134 -162 191 -162 205 0 3 53 5 119 5 126 0 149
8 138 49 -3 14 2 21 18 25 31 8 79 49 105 90 45 74 85 384 92 716 4 188 -11
799 -23 950 -12 152 -48 319 -84 390 -61 121 -187 215 -480 360 -306 152 -641
266 -923 315 -155 26 -413 54 -602 65 -280 16 -329 21 -324 35 3 6 20 19 38
27 71 34 156 202 181 360 l6 36 302 -1 c398 -2 600 21 645 76 25 30 34 222 29
607 -8 498 -22 597 -98 684 -39 44 -80 63 -214 101 -75 21 -82 27 -89 73 -4
28 4 240 14 367 2 32 -14 112 -25 120 -30 24 -78 231 -100 425 -9 80 -23 183
-31 230 -29 163 -106 465 -127 500 -12 19 -46 61 -77 94 -152 161 -316 218
-723 251 -325 26 -1017 15 -1582 -25 -77 -5 -196 -12 -265 -15 -69 -3 -231
-13 -360 -22 -157 -11 -373 -16 -650 -16 -277 0 -493 5 -650 16 -129 9 -291
19 -360 22 -69 3 -188 10 -265 15 -553 39 -1290 50 -1605 24z m1300 -83 c85
-5 238 -14 340 -20 334 -20 532 -31 771 -46 130 -8 341 -15 469 -15 128 0 339
7 469 15 239 15 437 26 771 46 102 6 255 15 340 20 85 5 351 12 590 15 870 13
1164 -36 1347 -224 57 -58 89 -107 98 -149 6 -32 6 -33 -24 -27 -30 6 -136 -3
-371 -31 -162 -20 -458 -34 -940 -45 -381 -9 -661 -24 -945 -50 -123 -11 -357
-25 -670 -40 -115 -6 -274 -15 -351 -20 -183 -13 -247 -13 -261 1 -15 15 -82
17 -102 2 -20 -15 -81 -16 -265 -3 -77 5 -235 14 -351 20 -313 15 -547 29
-670 40 -284 26 -564 41 -945 50 -482 11 -778 25 -940 45 -235 28 -341 37
-371 31 -30 -6 -30 -5 -24 27 14 66 103 170 199 232 107 68 307 115 571 134
152 11 1039 5 1265 -8z m3358 -696 l3 -140 -33 -27 -33 -26 -7 -159 c-3 -87
-7 -247 -7 -356 l-1 -197 -38 6 c-56 9 -72 -11 -72 -90 0 -69 6 -79 55 -90 17
-4 54 -14 83 -22 l52 -15 0 -604 0 -604 -26 -83 c-15 -46 -29 -114 -33 -153
l-6 -70 -675 -3 c-371 -2 -733 -4 -805 -5 -71 -1 -161 0 -200 2 -38 2 -134 0
-211 -4 -78 -4 -154 -5 -168 -1 l-26 6 0 349 c0 191 3 402 7 469 l6 121 71 16
c317 72 580 145 703 196 109 46 152 113 153 243 1 170 -99 371 -258 517 -85
78 -164 126 -256 157 -82 27 -218 38 -291 25 -29 -5 -68 -5 -93 0 l-42 8 2
290 3 290 405 3 c223 2 486 9 585 15 99 6 254 15 345 20 148 9 414 29 680 51
52 4 102 7 110 6 12 -1 15 -25 18 -141z m-2319 -549 c-46 -46 -166 -86 -153
-51 8 21 84 55 123 55 19 0 32 -2 30 -4z m134 -23 c4 -3 -24 -19 -62 -34 -39
-15 -88 -39 -110 -53 -47 -30 -52 -31 -45 -11 7 17 97 78 139 93 35 12 69 15
78 5z m417 -24 c187 -51 359 -200 454 -394 94 -191 86 -370 -18 -435 -120 -74
-904 -266 -1366 -335 -92 -13 -124 -15 -157 -6 -118 32 -183 171 -184 391 0
171 52 340 133 432 l29 33 -6 -60 c-5 -44 -14 -71 -35 -100 -16 -22 -37 -55
-47 -73 -16 -31 -16 -36 0 -81 23 -66 22 -79 -13 -131 -38 -57 -38 -84 1 -145
18 -28 35 -73 41 -107 13 -72 45 -115 94 -124 89 -16 160 31 188 127 11 34 20
122 26 237 15 303 43 410 142 539 142 186 484 297 718 232z m-867 -101 c-11
-13 -31 -43 -43 -66 -12 -24 -24 -42 -26 -39 -10 10 68 127 84 127 3 0 -4 -10
-15 -22z m96 -132 c-16 -25 -40 -69 -54 -98 -49 -107 -59 -170 -84 -524 -8
-120 -31 -217 -47 -201 -4 4 1 46 10 94 16 83 16 93 1 163 -21 92 -29 188 -21
234 4 19 29 64 55 100 33 44 52 81 56 109 17 108 51 167 97 167 15 0 13 -7
-13 -44z m-255 -62 c-15 -25 -30 -60 -34 -77 l-8 -32 -1 38 c-1 52 34 113 67
117 2 0 -9 -21 -24 -46z m-54 -189 c-25 -27 -60 -104 -60 -134 0 -19 -3 -22
-12 -13 -23 23 -13 68 25 113 20 23 40 58 44 78 l6 36 8 -30 c7 -23 4 -34 -11
-50z m-49 -295 c-6 -20 -11 -63 -11 -95 l0 -58 -30 44 c-16 24 -30 50 -30 57
0 7 14 33 30 57 17 24 30 50 30 57 0 8 5 5 12 -6 7 -13 7 -29 -1 -56z m82
-282 l42 -38 -30 0 c-58 0 -76 24 -99 135 -6 26 -3 24 19 -15 14 -25 44 -62
68 -82z m3730 -855 c49 -34 92 -93 118 -163 27 -73 25 -206 -5 -239 -31 -34
-137 -81 -208 -93 -57 -10 -72 -9 -114 7 -26 10 -64 33 -83 51 l-36 33 1 88
c1 64 7 103 23 145 28 73 87 135 138 144 51 9 86 31 79 51 -9 22 39 9 87 -24z
m-5286 -3 c14 -11 38 -20 53 -20 40 0 107 -57 136 -116 31 -63 49 -167 40
-229 -20 -131 -175 -172 -348 -92 -115 52 -161 122 -137 209 19 73 78 178 126
224 51 50 88 57 130 24z m-304 -157 c-14 -31 -29 -81 -33 -112 l-7 -56 -2 58
c-1 59 17 117 46 149 9 10 17 18 19 18 2 0 -9 -25 -23 -57z m4605 -47 c7 -4
12 -27 12 -51 0 -88 64 -246 132 -324 28 -31 29 -35 12 -44 -19 -11 -346 -5
-779 13 -178 8 -312 8 -465 0 -522 -26 -667 -26 -1235 0 -160 8 -303 8 -470 0
-132 -5 -365 -13 -517 -17 -242 -5 -278 -4 -278 9 0 8 12 25 26 39 58 54 123
209 139 331 4 32 11 48 22 50 36 7 3390 1 3401 -6z m1951 -1242 c103 -86 28
-269 -132 -325 -37 -13 -40 -12 -58 10 -29 36 -23 57 24 90 54 37 76 61 55 61
-18 0 -54 38 -63 68 -10 34 13 90 43 107 43 23 96 19 131 -11z m-6363 -19 c20
-14 21 -26 28 -272 3 -142 9 -315 12 -385 l7 -128 43 0 c67 0 93 -39 58 -88
-15 -21 -20 -22 -203 -22 -171 0 -189 2 -205 19 -21 23 -13 67 14 81 10 6 38
10 61 10 l42 0 -7 38 c-3 20 -6 70 -6 110 l0 72 -94 0 -93 0 -76 -107 c-65
-93 -73 -108 -56 -111 30 -5 51 -44 40 -74 -5 -14 -17 -28 -26 -32 -9 -3 -72
-6 -139 -6 -108 0 -125 2 -140 19 -21 23 -13 67 14 81 10 6 36 10 58 10 37 0
41 3 92 78 263 378 485 690 502 705 25 21 47 22 74 2z m2011 0 c20 -14 21 -24
27 -372 4 -197 9 -370 12 -385 5 -25 10 -28 48 -28 53 0 80 -25 70 -64 -3 -15
-14 -31 -24 -36 -10 -6 -100 -10 -199 -10 -150 0 -182 3 -195 16 -20 20 -20
43 0 72 12 17 25 22 60 22 l44 0 0 110 0 110 -95 0 -94 0 -76 -107 c-63 -89
-73 -109 -58 -112 29 -5 43 -22 43 -52 0 -52 -18 -59 -160 -59 -104 0 -132 3
-144 16 -20 20 -20 43 0 72 12 17 25 22 62 22 l47 0 64 93 c266 383 485 688
499 697 24 14 44 12 69 -5z m3807 2 c17 -12 19 -39 27 -278 4 -145 8 -319 8
-386 l1 -123 41 0 c56 0 79 -14 79 -50 0 -56 -13 -60 -211 -60 -105 0 -188 4
-200 10 -24 13 -25 57 -2 82 11 12 30 18 60 18 l43 0 0 110 0 110 -97 0 -98
-1 -70 -102 c-38 -56 -71 -104 -73 -107 -1 -3 11 -11 28 -17 23 -9 30 -17 30
-39 0 -56 -20 -64 -157 -64 -137 0 -163 7 -163 47 0 41 27 63 76 63 l43 0 94
133 c51 72 174 247 272 387 97 140 185 261 193 268 21 16 54 15 76 -1z m1187
-17 c55 -17 65 -17 72 -5 17 31 97 8 97 -27 0 -28 -83 -244 -97 -255 -24 -18
-47 -16 -67 6 -15 16 -17 30 -11 70 13 97 -51 146 -158 121 -59 -13 -87 -45
-87 -98 0 -43 3 -46 124 -165 102 -101 126 -131 140 -171 20 -61 20 -88 1
-153 -20 -68 -86 -141 -162 -178 -49 -24 -73 -30 -155 -33 -80 -4 -107 -1
-163 18 -61 20 -68 21 -84 6 -26 -23 -68 -20 -85 7 -14 20 -12 32 28 143 24
67 47 127 50 133 9 13 55 14 75 2 9 -6 13 -22 11 -43 -5 -67 -3 -88 13 -112
22 -33 106 -60 164 -52 88 12 133 59 133 141 0 46 -1 48 -99 144 -138 134
-155 164 -156 260 0 65 4 83 28 123 69 117 232 167 388 118z m-8262 -3 c7 -9
12 -97 13 -254 l3 -241 155 225 c85 124 166 239 178 254 l24 29 132 0 c141 0
156 -5 156 -49 0 -40 -27 -61 -80 -61 l-47 0 -57 -157 c-31 -87 -85 -237 -120
-333 l-63 -175 36 -3 c65 -6 91 -52 51 -92 -19 -19 -33 -20 -201 -20 -105 0
-188 4 -200 10 -23 13 -26 62 -3 84 10 10 34 16 67 16 l52 0 67 192 c37 105
67 193 65 194 -1 1 -79 -109 -172 -244 -174 -252 -193 -272 -227 -238 -13 12
-14 54 -10 268 2 139 2 250 -2 247 -5 -4 -33 -82 -127 -348 -25 -71 -25 -71
15 -71 59 0 83 -42 50 -88 -14 -21 -22 -22 -155 -22 -78 0 -149 5 -160 10 -24
14 -25 61 -1 83 9 9 39 17 66 19 l49 3 64 180 c36 99 89 249 118 333 l53 152
-32 0 c-48 0 -79 26 -71 59 12 49 19 51 165 51 102 0 140 -3 149 -13z m2010
-1 c9 -10 11 -81 9 -254 -2 -132 0 -238 4 -236 4 3 82 113 174 247 92 133 172
245 178 249 19 13 271 9 284 -4 17 -17 15 -63 -4 -79 -9 -8 -39 -16 -67 -19
l-50 -5 -48 -135 c-26 -74 -68 -193 -94 -265 -26 -71 -58 -160 -70 -197 l-24
-68 39 0 c44 0 71 -27 63 -63 -11 -44 -27 -47 -220 -47 -168 0 -185 2 -203 20
-16 16 -18 24 -9 50 11 31 25 38 93 42 35 3 41 7 52 38 77 219 123 350 120
350 -1 0 -42 -59 -92 -130 -254 -371 -253 -369 -281 -370 -6 0 -19 7 -28 16
-14 15 -15 45 -10 273 l5 256 -36 -95 c-20 -52 -55 -150 -79 -217 l-44 -123
38 0 c48 0 75 -26 65 -64 -3 -15 -14 -31 -24 -36 -28 -15 -293 -13 -308 2 -17
17 -15 64 4 82 10 10 33 16 64 16 36 0 50 4 55 18 4 9 54 150 111 312 57 162
109 305 114 318 9 20 7 22 -23 22 -39 0 -77 24 -77 48 0 10 7 28 16 40 14 21
22 22 153 22 107 0 141 -3 150 -14z m2519 2 c17 -17 15 -64 -4 -82 -10 -10
-33 -16 -64 -16 -36 0 -50 -4 -55 -17 -4 -10 -38 -106 -77 -213 -75 -210 -142
-394 -153 -422 -6 -15 -1 -18 34 -18 32 0 44 -5 56 -24 18 -27 7 -69 -20 -80
-9 -3 -97 -6 -195 -6 -149 0 -181 3 -194 16 -20 20 -20 43 0 72 12 18 25 22
65 22 45 0 51 3 60 28 15 38 90 245 159 442 32 91 61 173 65 183 6 14 1 17
-29 17 -66 0 -96 60 -48 98 22 17 383 17 400 0z m561 -7 c79 -24 123 -59 151
-117 46 -93 8 -206 -87 -260 -27 -15 -50 -29 -51 -30 -2 -1 6 -16 18 -32 31
-41 35 -101 16 -215 -10 -54 -14 -102 -10 -108 3 -6 16 -8 28 -5 49 12 84 -55
47 -88 -30 -28 -136 -26 -188 4 -75 42 -88 91 -67 248 15 107 15 114 -2 133
-12 13 -30 19 -63 19 l-46 0 -56 -155 -56 -155 38 0 c61 0 86 -41 53 -88 -15
-21 -20 -22 -203 -22 -171 0 -189 2 -205 19 -21 23 -13 67 14 81 10 6 38 10
62 10 l44 0 111 313 c61 171 114 322 117 335 7 20 4 22 -24 22 -17 0 -40 5
-51 10 -24 13 -25 57 -2 82 14 16 34 18 184 18 136 0 178 -4 228 -19z m727 2
c15 -16 16 -38 10 -257 -4 -132 -4 -237 1 -232 4 4 85 119 179 254 l171 247
136 3 c113 2 138 0 151 -13 42 -42 1 -95 -72 -95 l-48 0 -26 -77 c-14 -43 -67
-192 -117 -331 -50 -139 -91 -255 -91 -257 0 -3 14 -5 31 -5 17 0 39 -5 50
-10 24 -13 25 -57 2 -82 -14 -16 -35 -18 -201 -18 -159 0 -188 2 -204 17 -22
20 -23 42 -2 71 12 18 25 22 68 22 l54 0 38 108 c21 59 52 146 70 194 17 49
29 86 25 84 -3 -3 -80 -113 -171 -245 -168 -245 -191 -269 -226 -240 -14 11
-15 46 -12 276 2 207 1 256 -9 230 -49 -136 -116 -326 -123 -347 -4 -14 -11
-33 -15 -42 -6 -15 -1 -18 29 -18 50 0 79 -30 65 -67 -6 -15 -16 -31 -22 -35
-7 -4 -75 -8 -151 -8 -116 0 -143 3 -158 17 -44 40 -4 93 70 93 l47 0 111 313
c62 171 115 322 118 335 7 20 4 22 -24 22 -47 0 -70 16 -70 50 0 54 17 60 165
60 113 0 136 -3 151 -17z m-5874 -2080 c-2 -82 -5 -149 -6 -151 -2 -1 -23 5
-47 14 -129 47 -621 133 -766 134 -13 0 -23 6 -23 14 0 17 10 20 205 46 88 12
259 37 380 55 121 18 229 33 240 34 19 1 20 -4 17 -146z m8313 108 c116 -17
278 -39 360 -51 271 -37 355 -59 235 -60 -155 -1 -535 -57 -715 -104 -49 -14
-96 -26 -104 -28 -23 -5 -65 255 -44 276 4 4 19 4 33 2 14 -3 120 -19 235 -35z
m-9020 -201 c300 -34 672 -114 662 -143 -5 -17 -120 -42 -125 -27 -2 6 -17 8
-35 6 -18 -3 -86 -12 -152 -21 -272 -36 -744 -120 -862 -154 -18 -5 -33 -7
-33 -5 0 3 50 63 111 132 62 70 123 148 138 174 l26 48 90 0 c50 0 131 -5 180
-10z m9749 -44 c19 -30 82 -109 140 -174 59 -66 106 -122 106 -125 0 -2 -45 6
-99 19 -139 33 -360 70 -536 89 -402 44 -550 68 -559 91 -7 18 9 25 145 57
209 51 505 94 666 96 l102 1 35 -54z"/>
<path d="M3793 3445 l-51 -70 50 -3 c28 -2 52 -1 55 1 2 3 3 36 1 73 l-3 69
-52 -70z"/>
<path d="M5797 3439 l-48 -69 55 0 56 0 -1 53 c-1 91 -9 93 -62 16z"/>
<path d="M9607 3444 l-48 -69 25 -3 c14 -2 38 -2 53 0 l28 3 -5 69 -5 70 -48
-70z"/>
<path d="M7670 3590 c-24 -66 -40 -123 -37 -127 3 -3 26 -2 51 1 82 13 126 68
126 160 0 45 -4 58 -22 70 -12 9 -34 16 -49 16 -25 0 -29 -7 -69 -120z"/>
</g>
</svg>
